<svg width="132" xmlns="http://www.w3.org/2000/svg" height="40" id="screenshot-f6a69022-e1c4-80bc-8005-5e7e6f4a4120" viewBox="0 0 132 40" xmlns:xlink="http://www.w3.org/1999/xlink" fill="none" version="1.1"><g id="shape-f6a69022-e1c4-80bc-8005-5e7e6f4a4120" rx="0" ry="0" style="fill: rgb(0, 0, 0);"><defs><clipPath id="render-1-a" class="svg-def" transform="matrix(2.078730, 0.000000, 0.000000, 2.095980, -16.075653, -8.207544)"><rect width="63.5" height="18.686" fill="#fff" transform="translate(7.7334 3.91577)"/></clipPath></defs><g id="shape-f6a69022-e1c4-80bc-8005-5e7e6f4a4121"><g class="fills" id="fills-f6a69022-e1c4-80bc-8005-5e7e6f4a4121"><path d="M31.059,0.020L0.000,0.020L0.000,7.850L31.059,7.850L31.059,0.020ZZ" style="fill: rgb(0, 0, 0);"/></g></g><g id="shape-f6a69022-e1c4-80bc-8005-5e7e6f4a4122"><g class="fills" id="fills-f6a69022-e1c4-80bc-8005-5e7e6f4a4122"><path d="M104.771,0.020L97.006,0.020L97.006,31.337L104.771,31.337L104.771,0.020ZZ" style="fill: rgb(0, 0, 0);"/></g></g><g id="shape-f6a69022-e1c4-80bc-8005-5e7e6f4a4123"><g class="fills" id="fills-f6a69022-e1c4-80bc-8005-5e7e6f4a4123"><path d="M31.059,15.678L7.765,15.678L7.765,23.507L31.059,23.507L31.059,15.678ZZ" style="fill: rgb(0, 0, 0);"/></g></g><g id="shape-f6a69022-e1c4-80bc-8005-5e7e6f4a4124"><g class="fills" id="fills-f6a69022-e1c4-80bc-8005-5e7e6f4a4124"><path d="M27.177,39.166L38.824,39.166L38.824,31.337L27.177,31.337L27.177,39.166ZZ" style="fill: rgb(0, 0, 0);"/></g></g><g id="shape-f6a69022-e1c4-80bc-8005-5e7e6f4a4125"><g class="fills" id="fills-f6a69022-e1c4-80bc-8005-5e7e6f4a4125"><path d="M74.500,8.461C72.235,10.745,69.224,12.002,66.021,12.002C62.818,12.002,59.807,10.745,57.542,8.461C55.303,6.203,54.059,3.209,54.032,0.020L46.611,0.020C46.669,10.780,55.337,19.484,66.021,19.484C76.706,19.484,85.373,10.780,85.432,0.020L78.011,0.020C77.983,3.209,76.740,6.203,74.500,8.461ZL74.500,8.461Z" style="fill: rgb(0, 0, 0);"/></g></g><g id="shape-f6a69022-e1c4-80bc-8005-5e7e6f4a4126"><g class="fills" id="fills-f6a69022-e1c4-80bc-8005-5e7e6f4a4126"><path d="M112.588,0.000C112.570,0.000,112.552,0.001,112.588,0.000ZL112.535,7.483C112.552,7.483,112.570,7.482,112.588,7.482C115.791,7.482,118.802,8.740,121.067,11.023C123.332,13.307,124.579,16.343,124.579,19.573C124.579,22.802,123.332,25.838,121.067,28.122C118.802,30.406,115.791,31.663,112.588,31.663C112.570,31.663,112.552,31.663,112.535,31.663L97.005,31.663L97.005,39.145L112.535,39.145C112.552,39.145,112.570,39.145,112.588,39.145C123.309,39.145,132.000,30.382,132.000,19.573C132.000,8.763,123.309,0.000,112.588,0.000ZZ" style="fill: rgb(0, 0, 0);"/></g></g><g id="shape-f6a69022-e1c4-80bc-8005-5e7e6f4a4127"><g class="fills" id="fills-f6a69022-e1c4-80bc-8005-5e7e6f4a4127"><path d="M66.021,20.645C55.372,20.645,46.728,29.291,46.612,40.000L54.032,40.000C54.087,36.852,55.328,33.900,57.542,31.668C59.807,29.384,62.818,28.127,66.021,28.127C69.224,28.127,72.235,29.384,74.500,31.668C76.714,33.900,77.955,36.852,78.009,40.000L85.430,40.000C85.314,29.291,76.670,20.645,66.021,20.645ZZ" style="fill: rgb(0, 0, 0);"/></g></g><g id="shape-f6a69022-e1c4-80bc-8005-5e7e6f4a4128"><g class="fills" id="fills-f6a69022-e1c4-80bc-8005-5e7e6f4a4128"><path d="M0.000,39.166L7.441,39.166L7.441,15.678L0.000,15.678L0.000,39.166ZZ" style="fill: rgb(0, 0, 0);"/></g></g></g></svg>