<svg width="220.408" xmlns="http://www.w3.org/2000/svg" height="40" fill="none"><path d="M119.91 37.309h28.443v-3.485h-23.567v-11.15h17.701v-3.526h-17.701V8.875h23.567V5.403H119.91zM134.691.245l-3.851 4.339L142.929.245zm61.41 33.579V5.403h-4.446v31.906h28.753v-3.485zM166.783 5.403l-16.175 31.906h5.467l4.138-8.259h19.399l4.173 8.259h5.411L173.009 5.403zm-4.522 19.648 7.621-15.239 7.711 15.239zm-57.785-1.084c7.288-1.95 7.996-7.389 7.959-9.333-.435-5.7-4.264-9.231-11.144-9.231H81.242v31.906h4.571V23.925h13.052l9.603 13.384h5.76s-6.91-9.008-9.752-13.342m-3.809-3.812H85.813V9.179h15.372c3.539 0 5.53 1.657 6.247 3.763.475 1.443.17 3.337-.614 4.627-1.285 2.132-3.726 2.586-6.151 2.586M53.776 0C40.875 0 32.081 9.124 32.081 20.167 32.081 31.793 41.795 40 53.776 40c11.974 0 21.683-8.09 21.683-19.833C75.459 9.124 66.557 0 53.776 0m-.155 36.039c-8.926 0-16.28-7.194-16.28-15.861 0-8.655 7.007-16.194 16.626-16.194 9.381 0 16.277 7.539 16.277 16.194 0 8.667-7.7 15.861-16.623 15.861M20.57 16.69h3.298l5.986-11.287h-4.817zM4.448 33.824V5.403H0v31.906h28.752v-3.485z" class="fills" style="fill:#000"/></svg>