<svg width="161.522" xmlns="http://www.w3.org/2000/svg" height="36" fill="none"><path d="M93.534.365 79.869 35.26h-2.26L91.273.365z" fill-rule="evenodd" clip-rule="evenodd" style="fill:#000;fill-opacity:1" class="fills"/><path d="M0 .203h34.945v35.501H0z" fill-rule="evenodd" clip-rule="evenodd" style="fill:#000" class="fills"/><path d="m149.545 22.809-3.88-12.276-3.92 12.276zm.084-21.848 11.893 33.986h-8.314l-2.045-6.367h-11.039l-2.003 6.367h-8.312L141.659.961zm-24.721 15.526v18.459h-5.968v-3.16q-1.237 1.831-2.856 2.701-1.62.872-3.282 1.191-.812.138-1.599.207-.788.068-1.514.068l-.427.047q-.041-.047-.064-.047h-.062q-.938 0-3.027-.183-2.089-.184-4.391-1.283-3.025-1.465-5.519-5.198t-2.494-11.427q0-7.97 4.028-12.916T110.372 0h.424q4.903 0 7.675 1.901 2.769 1.9 4.133 4.145 1.193 2.015 1.599 3.756.405 1.742.448 2.199h-8.226q-.085-2.016-1.471-3.664-1.385-1.65-4.411-1.695-3.664.046-5.392 2.015-1.727 1.97-2.366 4.305c-.247.93-.411 1.881-.49 2.84a31 31 0 0 0-.106 2.29q0 5.725 2.153 8.222 2.152 2.495 4.71 2.907.313.088.638.115.299.024.597.023 3.24-.09 5.072-2.061 1.834-1.971 2.003-4.626h-6.308v-6.184zm-73.017-.274h6.522a6.55 6.55 0 0 0 3.218-.916q1.47-.87 1.471-3.344 0-2.657-1.471-3.527t-3.602-.87h-6.137zM44.005.961h16.624q5.754 0 8.098 2.909 2.345 2.907 2.345 6.755 0 3.343-1.279 5.244-1.278 1.902-2.813 2.726a4 4 0 0 1-.575.297q-.278.114-.533.205v.138q2.515.734 3.389 2.496.873 1.764 1.044 3.734.087 1.005.085 2.015.041 3.067.192 4.467.149 1.394.745 2.45.043.136.128.274l.17.275h-8.013q-.682-1.055-.917-2.474t-.32-4.764q0-.228-.02-.504a6 6 0 0 1-.021-.504 6.03 6.03 0 0 0-1.045-2.953q-.916-1.352-4.07-1.352h-5.328v12.551h-7.886z" fill-rule="evenodd" clip-rule="evenodd" style="fill:#000;fill-opacity:1" class="fills"/></svg>