<svg width="160" xmlns="http://www.w3.org/2000/svg" height="45.283" fill="none"><g xml:space="preserve" style="fill:#000"><path d="M65.505 29.611V17.508c0-.264-.013-.529.028-.778.124-.97.594-1.66 1.492-1.983 2.858-1.058 5.786-1.763 8.811-2.027 2.127-.191 4.254-.176 6.367.161 1.547.25 3.038.691 4.419 1.469 2.707 1.513 4.213 3.937 4.724 7.109.138.823.179 1.645.179 2.468v18.404c-.027.852-.386 1.263-1.187 1.278q-2.528.021-5.055 0c-.76 0-1.133-.412-1.188-1.22-.014-.205 0-.425 0-.631V25.337c0-.705-.041-1.425-.249-2.101-.566-1.792-1.823-2.732-3.48-3.128-1.367-.323-2.735-.22-4.116-.074-.635.059-1.27.206-1.892.368-1.077.264-1.395.705-1.395 1.88v20.107c-.027.794-.414 1.22-1.174 1.234-.884.015-1.781 0-2.665 0-.774 0-1.561.015-2.334 0-.912-.014-1.285-.426-1.285-1.395zM22.954 43.609c-.843 0-1.685.014-2.528 0-.856-.015-1.146-.426-.911-1.337.166-.661.304-1.322.318-2.012.027-1.748-.65-3.099-1.962-4.098-.966-.735-2.044-1.234-3.162-1.616-1.851-.631-3.729-1.219-5.58-1.851-1.505-.514-2.942-1.16-4.254-2.115-2.209-1.615-3.314-3.848-3.439-6.683-.234-5.126 2.445-8.901 6.851-10.575 2.03-.764 4.143-1.028 6.284-.969 3.411.102 6.684.822 9.778 2.379.442.22.87.455 1.298.72.884.529 1.105 1.189.732 2.188-.138.367-.304.735-.456 1.102-.428.955-.842 1.924-1.284 2.879-.497 1.087-1.298 1.38-2.293.808-1.657-.955-3.37-1.778-5.22-2.248-1.81-.455-3.633-.646-5.47-.205a4.3 4.3 0 0 0-1.588.705c-1.409 1.043-1.464 2.864-.124 3.995.594.499 1.284.822 2.002 1.101 1.727.676 3.522 1.131 5.276 1.704 1.63.529 3.246 1.131 4.751 1.998 1.036.602 2.003 1.307 2.831 2.203 1.754 1.895 2.514 4.23 2.583 6.845.042 1.175-.055 2.35-.359 3.495a8 8 0 0 1-.152.544c-.276.793-.608 1.043-1.395 1.057-.842 0-1.685-.014-2.527-.014m108.374-16.128c0-4.671-.013-9.341 0-14.012 0-2.071.304-4.083 1.078-6.008 1.353-3.334 3.812-5.243 7.085-6.022a15.36 15.36 0 0 1 6.933-.029c.041.015.083.015.124.029 1.133.279 1.381.676 1.16 1.91-.193 1.072-.373 2.13-.566 3.187-.193 1.102-.552 1.381-1.616 1.219-.829-.117-1.671-.279-2.513-.264-.47.015-.94.073-1.382.191-1.685.426-2.665 1.733-2.858 3.716-.042.426-.056.852-.07 1.278-.013.499-.013.514.456.514h6.602c1.008 0 1.353.382 1.367 1.454.014 1.278.014 2.541 0 3.819 0 1.072-.359 1.425-1.381 1.425h-6.795c-.166 0-.235.088-.235.264v.573c0 7.05-.014 14.1.014 21.165 0 1.175-.276 1.763-1.602 1.719a73 73 0 0 0-4.392 0c-1.022.029-1.422-.603-1.409-1.499.014-4.861 0-9.752 0-14.629m27.457.911v13.792c-.014 1.057-.359 1.425-1.381 1.425h-3.868c-.359 0-.704.014-1.063 0-.677-.03-1.063-.412-1.132-1.131-.028-.206-.014-.426-.014-.632V14.952c0-1.439.304-1.748 1.629-1.748h4.461c.995 0 1.354.382 1.368 1.455z" class="fills"/><g class="fills"><path d="M159.019 5.288c.014 2.012-.925 3.481-2.568 3.98a4.6 4.6 0 0 1-2.749-.015c-1.837-.572-2.679-2.203-2.624-4.244.014-.324.055-.661.124-.984.346-1.513 1.23-2.483 2.652-2.835a4.64 4.64 0 0 1 2.818.161c1.45.558 2.154 1.719 2.334 3.305.027.206.013.426.013.632" class="st0" style="fill:#000;fill-opacity:1"/></g><g class="fills"><path d="M8.936 39.995c-.028.456-.042.867-.138 1.293-.401 1.601-1.382 2.541-2.887 2.849a4.45 4.45 0 0 1-2.362-.147c-1.229-.425-2.057-1.277-2.389-2.614a5.5 5.5 0 0 1 .069-2.996c.401-1.278 1.243-2.086 2.472-2.424.857-.235 1.713-.205 2.569.03 1.492.411 2.5 1.689 2.638 3.334.014.235.028.47.028.675" class="st0" style="fill:#000;fill-opacity:1"/></g><path d="M58.558 17.067c-.055-1.131-.524-1.924-1.574-2.276-.069-.015-.124-.044-.193-.074-2.763-1.087-5.594-1.792-8.535-2.027-2.086-.161-4.171-.176-6.215.338-5.041 1.263-8.494 4.436-10.096 9.709-1.243 4.098-1.105 8.24.179 12.294.953 3.026 2.721 5.42 5.345 7.05 2.072 1.293 4.337 1.909 6.698 2.056a26.6 26.6 0 0 0 8.066-.69 28.6 28.6 0 0 0 4.862-1.674c.883-.397 1.367-1.087 1.45-2.101.013-.235.013-.47.013-.705V17.684c0-.191.014-.411 0-.617m-8.493 19.154c-2.1.705-4.254.998-6.422.396-2.155-.602-3.619-2.071-4.337-4.289-.842-2.57-.856-5.199-.014-7.77.939-2.849 2.942-4.333 5.746-4.597a12.2 12.2 0 0 1 4.93.587c.856.338 1.146.764 1.16 1.748.014 2.057 0 4.098 0 6.155 0 2.027-.014 4.053 0 6.08 0 .852-.331 1.44-1.063 1.69m75.118-12.838c-1.271-4.7-3.978-8.049-8.315-9.767-2.762-1.087-5.621-1.293-8.521-.735-4.364.838-7.665 3.305-9.626 7.55-2.182 4.729-2.293 9.635-.58 14.541 1.477 4.245 4.35 7.036 8.383 8.446 2.417.837 4.917 1.013 7.43.617 4.489-.691 7.886-3.114 10.041-7.374 1.298-2.57 1.795-5.346 1.809-8.857a19 19 0 0 0-.621-4.421m-7.61 9.151c-1.119 3.246-3.784 4.627-6.712 4.333-.76-.074-1.492-.221-2.196-.529-1.699-.749-2.845-2.071-3.453-3.892-.898-2.718-.898-5.464.028-8.167.966-2.835 3.204-4.406 6.049-4.362.663.015 1.326.073 1.975.25 2.113.587 3.563 1.982 4.309 4.127.939 2.747.939 5.523 0 8.24" class="fills"/></g></svg>