<svg width="244.706" xmlns="http://www.w3.org/2000/svg" height="40" fill="none"><path d="M96.578 5.74H71.791v5.42h9.151v23.103h6.494V11.16h9.152zm24.242 18.839a7.93 7.93 0 0 1-5.998 4.842 9 9 0 0 1-1.499.135 8.7 8.7 0 0 1-1.509-.135 7.92 7.92 0 0 1-5.987-4.842 12.4 12.4 0 0 1 0-9.155 7.92 7.92 0 0 1 5.987-4.851 8.4 8.4 0 0 1 3.018 0 7.92 7.92 0 0 1 5.988 4.842 12.48 12.48 0 0 1 0 9.164m-7.497-19.696c-8.444 0-15.29 6.769-15.29 15.118s6.846 15.118 15.29 15.118 15.29-6.768 15.29-15.118c0-8.349-6.846-15.118-15.29-15.118m15.382.867h7.653l7.136 12.254L150.63 5.74h7.643l-11.537 17.972v10.551h-6.484V23.712zm44.979 23.806c.506 0 1.013-.049 1.5-.135a7.92 7.92 0 0 0 5.987-4.842 12.4 12.4 0 0 0 0-9.155 7.91 7.91 0 0 0-5.987-4.842 8.7 8.7 0 0 0-3.019 0 7.92 7.92 0 0 0-5.977 4.842 12.4 12.4 0 0 0-.876 4.573c0 1.617.311 3.167.876 4.582a7.9 7.9 0 0 0 5.987 4.842 9 9 0 0 0 1.509.135m-15.285-9.559c0-8.347 6.844-15.114 15.285-15.114 8.442 0 15.285 6.767 15.285 15.114 0 8.346-6.843 15.113-15.285 15.113s-15.285-6.767-15.285-15.113m74.838 2.984-4.244-11.273-4.255 11.263zm1.879 4.986h-12.267l-2.365 6.277h-7.224l11.682-28.523h8.081l11.683 28.523h-7.205ZM215.168 5.74h-24.787v5.42h9.151v23.103h6.494V11.16h9.132zM45.31 1.967A46.7 46.7 0 0 0 31.368.003a46.7 46.7 0 0 0-13.941 1.964C7.107 5.249 0 12.065 0 19.92 0 30.98 14.019 40 31.368 40c17.31 0 31.369-8.981 31.369-20.08 0-7.855-7.088-14.671-17.427-17.953M31.368 31.385c-2.589 0-4.702-5.006-4.819-11.35 1.538.164 3.155.202 4.819.202 1.655 0 3.281-.077 4.829-.192-.126 6.324-2.239 11.34-4.829 11.34M26.87 15.116c.682-4.457 2.434-7.576 4.498-7.576 2.025 0 3.768 3.119 4.498 7.567a52 52 0 0 1-8.996.009m11.751-.366C37.57 7.819 34.727 2.814 31.368 2.814s-6.201 4.967-7.253 11.936c-6.367-1.001-10.826-3.205-10.826-5.814 0-3.523 8.11-6.372 18.079-6.372s18.089 2.849 18.089 6.372c0 2.599-4.459 4.852-10.836 5.814M4.576 19.198c0-3.408 1.343-6.575 3.651-9.338-.039.193-.039.405-.039.559 0 4.293 6.484 7.893 15.518 9.26v.963c0 7.932 2.24 14.67 5.316 16.99-13.698-.799-24.437-8.741-24.446-18.434M33.724 37.68c3.077-2.329 5.306-9.068 5.306-17v-.963c9.035-1.318 15.519-4.967 15.519-9.25 0-.202 0-.405-.039-.568a14.4 14.4 0 0 1 3.651 9.337c0 9.655-10.739 17.597-24.437 18.444" class="fills" xml:space="preserve" style="fill:#000"/></svg>