<svg width="97.901" xmlns="http://www.w3.org/2000/svg" height="96" fill="none"><g xml:space="preserve" style="fill:#000"><g class="fills"><path d="M71.924 59.013H60.422l-8.453-17.285c-4.61 2.459-7.253 8.157-11.938 11.926-2.387 1.914-5.18 3.622-8.649 4.785-1.576.516-4.249 1.193-5.255 1.296-.42.044-.721.029-.781-.133-.045-.117.075-.206.511-.412.51-.235 2.627-1.104 3.949-2.002 1.651-1.134 2.597-2.356 2.673-3.298-.451-1.576-3.694-5.051-.376-11.456 1.186-2.297 2.222-3.946 2.958-5.609.841-1.915 1.442-4.594 1.652-6.597.015-.118.03-.118.105-.044 1.607 1.605 7.853 7.907 6.952 14.179 2.072-.78 5.676-3.165 7.343-4.432 1.757-1.34 2.898-2.738 4.76-2.768 1.666-.029 1.801.751 3.138.928.33.044.811-.015 1.066-.147.105-.045.075-.162-.075-.192-1.802-.412-2.237-1.855-4.58-1.855-2.102 0-3.769 1.885-4.97 2.665l-5.901-12.074c-2.508-5.035-1.757-8.701 3.664-15.916z" class="st0" style="fill:#000;fill-opacity:1"/></g><g class="fills"><path d="m94.237 83.867-4.024-4.696c2.117-.472 3.409-1.664 3.409-3.74 0-2.341-2.028-3.519-4.595-3.519h-8.033v11.955h2.132v-4.52h4.775l3.678 4.52zm-11.111-10.1h5.961c1.471 0 2.342.677 2.342 1.811 0 1.163-.916 1.914-2.342 1.914h-5.961z" class="st0" style="fill:#000;fill-opacity:1"/></g><g class="fills"><path d="M8.499 71.912 2.207 83.867h2.418l1.336-2.665h7.163l1.336 2.665h2.462l-6.291-11.955zm-1.607 7.435 2.643-5.256 2.643 5.256z" class="st0" style="fill:#000;fill-opacity:1"/></g><g class="fills"><path d="M28.199 73.487c2.012 0 3.664.736 4.505 2.047l1.727-1.134c-1.202-1.649-3.334-2.798-6.217-2.798-4.67 0-7.357 2.989-7.357 6.302 0 3.298 2.687 6.287 7.357 6.287 2.898 0 5.015-1.148 6.217-2.797l-1.727-1.149c-.841 1.296-2.493 2.047-4.505 2.047-3.138 0-5.165-1.723-5.165-4.402s2.027-4.403 5.165-4.403" class="st0" style="fill:#000;fill-opacity:1"/></g><g class="fills"><path d="M47.554 73.487c1.997 0 3.664.736 4.505 2.047l1.726-1.134c-1.201-1.649-3.333-2.798-6.216-2.798-4.67 0-7.358 2.989-7.358 6.302 0 3.298 2.688 6.287 7.358 6.287 2.883 0 5.015-1.148 6.216-2.797l-1.726-1.134c-.841 1.296-2.493 2.047-4.505 2.047-3.138 0-5.165-1.723-5.165-4.403s2.027-4.417 5.165-4.417" class="st0" style="fill:#000;fill-opacity:1"/></g><g class="fills"><path d="M66.909 71.602c-4.67 0-7.358 2.989-7.358 6.302 0 3.298 2.688 6.287 7.358 6.287s7.358-2.989 7.358-6.287c0-3.313-2.673-6.302-7.358-6.302m0 10.719c-3.138 0-5.165-1.737-5.165-4.431s2.027-4.432 5.165-4.432 5.165 1.737 5.165 4.432c.015 2.694-2.012 4.431-5.165 4.431" class="st0" style="fill:#000;fill-opacity:1"/></g></g></svg>