<svg width="144.194" xmlns="http://www.w3.org/2000/svg" height="50" fill="none"><g clip-path="url(#a)" style="fill:#000"><defs><clipPath id="a" class="svg-def" transform="scale(1.16279)"><path fill="#fff" d="M0 .5h124v42H0z"/></clipPath></defs><path d="M32.974 42.112V14.823h10.541a15 15 0 0 1 4.435.557 6.04 6.04 0 0 1 3.051 2.34 6.93 6.93 0 0 1 1.288 4.182 6.17 6.17 0 0 1-1.305 3.927 5.9 5.9 0 0 1-3.606 2.129q2.853.501 4.317 2.34a6.78 6.78 0 0 1 1.469 4.357 7.4 7.4 0 0 1-.496 2.864 7.4 7.4 0 0 1-1.556 2.446q-2.051 2.151-6.31 2.147zm4.612-15.831h5.939a3.67 3.67 0 0 0 2.841-1.056c.373-.369.664-.813.854-1.304s.274-1.016.248-1.542q0-1.878-1.208-2.767a4.65 4.65 0 0 0-2.832-.89h-5.849zm0 11.733h6.303q2 0 3.159-1.05a4.02 4.02 0 0 0 1.16-2.845 4.1 4.1 0 0 0-.308-1.537 4.1 4.1 0 0 0-.869-1.3 4.4 4.4 0 0 0-3.124-1.096h-6.328zM60.23 19.559h-4.512v-4.736h4.512zm0 22.557h-4.512V21.92h4.512zm11.617.416q-4.439 0-6.778-3.219a12.2 12.2 0 0 1-2.336-7.376q0-4.477 2.585-7.458t6.824-2.98a8.4 8.4 0 0 1 3.617.71 8.5 8.5 0 0 1 2.978 2.19q2.586 2.9 2.586 7.538 0 4.777-2.683 7.705a8.9 8.9 0 0 1-3.091 2.2 8.5 8.5 0 0 1-3.702.69m.142-3.741q4.561 0 4.558-6.858 0-3.1-1.09-4.886t-3.346-1.79q-2.34 0-3.471 1.849-1.131 1.85-1.128 4.904 0 3.3 1.201 5.037a3.8 3.8 0 0 0 1.411 1.309 3.67 3.67 0 0 0 1.865.435m43.997-3.117 4.082.56a8.6 8.6 0 0 1-3.09 4.519q-2.3 1.782-5.764 1.779-4.166 0-6.699-2.802-2.534-2.802-2.534-7.636 0-4.578 2.555-7.576 2.555-2.999 6.941-3.002 4.28 0 6.615 2.96 2.337 2.96 2.347 7.58l-.021.521h-13.744a11.4 11.4 0 0 0 .388 3.296 4.44 4.44 0 0 0 1.534 2.162c.825.632 1.84.957 2.874.921q3.345 0 4.516-3.282m-.278-6.021a5.1 5.1 0 0 0-1.294-3.559 4.38 4.38 0 0 0-3.117-1.38 4.37 4.37 0 0 0-3.155 1.289q-1.24 1.271-1.468 3.65zm23.779 12.459h-4.512v-12.61q0-1.996-.909-3.009a2.9 2.9 0 0 0-.99-.749 2.85 2.85 0 0 0-1.211-.259q-1.763 0-3.089 1.558t-1.336 4.711v10.375h-4.513v-20.21h4.106v4.679q2.163-5.096 6.064-5.099a6.5 6.5 0 0 1 4.513 1.681q1.873 1.674 1.873 5.895z" style="fill:#000" class="fills"/><path d="M100.367 38.81q-1.735-1.598-4.804-1.598h-5.969c-.917 0-1.597-.206-2.048-.623a1.84 1.84 0 0 1-.677-1.366q0-1.346 1.388-1.986a16 16 0 0 0 3.721.522q3.683 0 5.918-1.752a5.4 5.4 0 0 0 1.66-1.951c.39-.776.59-1.634.582-2.504a5.05 5.05 0 0 0-1.34-3.362l2.885-.256-.646-3.899-5.453 1.85h-.021a18.3 18.3 0 0 0-3.88-.424q-4.165 0-6.227 1.786a5.54 5.54 0 0 0-2.047 4.305q0 2.995 2.776 4.701-3.2 1.565-3.203 4.203 0 1.751 1.87 3.352-2.925 1.401-2.926 4.115 0 5.482 9.719 5.482 5.175 0 7.809-1.888t2.638-4.757a5.18 5.18 0 0 0-1.725-3.95m-11.28-13.503q.982-.967 2.777-.967 1.794 0 2.693.925a3.1 3.1 0 0 1 .927 2.287q0 3.503-3.7 3.503-1.736 0-2.708-.925a3.16 3.16 0 0 1-.971-2.41 3.22 3.22 0 0 1 .982-2.413m3.585 20.981q-3.56 0-5.206-1.051t-1.631-2.452q0-.841.975-1.751a13 13 0 0 0 3.263.501h4.814a4.2 4.2 0 0 1 2.082.511 1.65 1.65 0 0 1 .916 1.517q-.006 2.724-5.213 2.725" style="fill:#000" class="fills"/><defs><linearGradient x1="10.749" y1="14.907" x2="18.538" y2="22.626" id="b" gradientUnits="userSpaceOnUse" gradientTransform="scale(1.16279)"><stop offset=".17" stop-color="#ECF1C5"/><stop offset=".74" stop-color="#DBE2A1"/></linearGradient></defs><path d="M17.91 17.415c-.347.297-.59.472-.59.472-4.04 3.009-9.208 4.466-9.208 4.466l-.823.235a12.7 12.7 0 0 0 4.597 2.947 12.64 12.64 0 0 0 10.607-.857 12.8 12.8 0 0 0 4.073-3.649c-2.315.83-5.536-.865-8.656-3.614" fill="url(#b)" style="fill:url(#b)" class="fills"/><defs><linearGradient x1="25.058" y1="13.233" x2="17.06" y2="10.349" id="c" gradientUnits="userSpaceOnUse" gradientTransform="scale(1.16279)"><stop stop-color="#DBE2A1"/><stop offset=".27" stop-color="#C9D788"/><stop offset=".55" stop-color="#BBCE75"/><stop offset=".74" stop-color="#B6CB6E"/></linearGradient></defs><path d="M28.993 12.673v-.231a17 17 0 0 0-.052-.557l-.032-.235a14 14 0 0 0-.1-.627c0-.038 0-.08-.025-.123a13 13 0 0 0-.17-.739c0-.056-.031-.112-.048-.168a8 8 0 0 0-.167-.553c-.021-.074-.049-.147-.073-.221a7 7 0 0 0-.191-.515l-.073-.192a13 13 0 0 0-.291-.655c-.031-.07-.07-.137-.104-.207q-.105-.21-.219-.417-.033-.062-.066-.119c-1.079 2.161-4.102 4.046-7.733 5.447a5.2 5.2 0 0 1 0 2.434c-.305 1.019-1.159 1.909-1.735 2.42 3.123 2.75 6.341 4.445 8.659 3.615.457-.623.856-1.287 1.194-1.982q.04-.085.08-.176l.156-.35q.066-.163.132-.333l.08-.203q.073-.194.139-.396c0-.048.035-.098.049-.147q.072-.22.135-.441c0-.035 0-.066.024-.098q.23-.806.347-1.636v-.115q.042-.34.07-.701v-.196c0-.27.031-.543.031-.82s0-.504-.017-.763" fill="url(#c)" style="fill:url(#c)" class="fills"/><defs><linearGradient x1="21.339" y1="8.952" x2="11.268" y2=".578" id="d" gradientUnits="userSpaceOnUse" gradientTransform="scale(1.16279)"><stop stop-color="#B5CA6D"/><stop offset=".09" stop-color="#A3C067"/><stop offset=".29" stop-color="#84AE5D"/><stop offset=".46" stop-color="#71A356"/><stop offset=".58" stop-color="#6A9F54"/></linearGradient></defs><path d="M26.959 6.441a9 9 0 0 0-.254-.374q-.213-.311-.447-.606l-.177-.228q-.182-.216-.368-.427l-.028-.021a12.74 12.74 0 0 0-5.936-3.71 12.65 12.65 0 0 0-6.983 0 84 84 0 0 1 1.215 1.377s3.534 4.084 5.29 8.823q.242.627.378 1.285c3.631-1.401 6.654-3.285 7.716-5.446a13 13 0 0 0-.406-.673" fill="url(#d)" style="fill:url(#d)" class="fills"/><defs><radialGradient cx="0" cy="0" r="1" id="e" gradientUnits="userSpaceOnUse" gradientTransform="matrix(9.48584 0 0 9.5727 11.66 11.832)"><stop offset=".17" stop-color="#3A5C7B"/><stop offset="1" stop-color="#5B89B4"/></radialGradient></defs><path d="M19.649 12.56a8 8 0 0 0-.378-1.285c-1.756-4.739-5.29-8.823-5.29-8.823s-.527-.606-1.215-1.377c-.152.046-.305.091-.454.144l-.066.021q-.224.074-.441.158l-.045.017q-.691.266-1.347.613h-.021l-.326.189-.184.116-.281.168-.205.13-.246.164-.236.165-.212.154-.305.235-.129.101-.427.35-.09.081-.326.308-.042.039a12.9 12.9 0 0 0-3.435 5.905 13 13 0 0 0 .058 6.848v.021c.231.811.54 1.597.923 2.347l.038.073q.1.195.212.389c0 .028.035.059.052.091q.109.189.222.378l.028.042q.362.577.784 1.111.052.072.108.14c.038.045.146.178.222.266l.146.168.215.242.177.182.153.161.819-.235s5.175-1.46 9.215-4.469c0 0 .25-.175.59-.473.59-.511 1.444-1.401 1.736-2.42.194-.8.195-1.634.003-2.435" fill="url(#e)" style="fill:url(#e)" class="fills"/><defs><radialGradient cx="0" cy="0" r="1" id="f" gradientUnits="userSpaceOnUse" gradientTransform="matrix(1.6356 -14.55467 8.54111 .95982 4.131 7.175)"><stop stop-color="#E6F1F7"/><stop offset=".09" stop-color="#D1E3F0"/><stop offset=".28" stop-color="#ABC8E3"/><stop offset=".47" stop-color="#8DB4D8"/><stop offset=".65" stop-color="#78A5D1"/><stop offset=".83" stop-color="#6B9CCC"/><stop offset="1" stop-color="#6799CB"/></radialGradient></defs><path d="M8.091 1.062S2.236 3.734.49 9.64s1.735 11.324 1.735 11.324 5.165-1.468 9.205-4.466c0 0 1.86-1.282 2.339-2.893.469-1.615-.392-3.713-.392-3.713-1.756-4.757-5.286-8.83-5.286-8.83" fill="url(#f)" style="fill:url(#f)" class="fills"/><path d="M143.073 39.891a1.115 1.115 0 0 1 1.035.694 1.14 1.14 0 0 1-.24 1.231 1.12 1.12 0 0 1-1.219.246 1.125 1.125 0 0 1-.69-1.043c0-.298.117-.585.325-.796.21-.211.492-.331.789-.332m0 2.053a.924.924 0 0 0 .905-1.108.92.92 0 0 0-1.255-.677.92.92 0 0 0-.567.86.92.92 0 0 0 .917.925m-.219-.326h-.253v-1.205h.554c.07 0 .456 0 .456.351a.324.324 0 0 1-.223.322l.223.522h-.264l-.198-.48h-.291zm0-.679h.264c.086 0 .229-.025.229-.168 0-.074-.049-.161-.205-.161h-.288z" style="fill:#000" class="fills"/></g><g style="mix-blend-mode:saturation"><rect rx="0" ry="0" x=".004" width="144.186" height="50" style="fill:#fff;fill-opacity:1" class="fills"/></g></svg>