<svg width="135.964" xmlns="http://www.w3.org/2000/svg" height="54" fill="none"><g style="fill:#000" xml:space="preserve"><g class="fills"><path d="M132.355 39.671c-11.355-.772-25.485-1.413-40.927-1.413-23.635 0-50.321 1.479-74.66 6.103-4.081-4.724-9.046-8.433-16.657-11.364L0 33.201C6.731 39.907 11.032 45.704 14.081 54c34.121-11.663 76.957-13.824 109.3-13.824 3.094 0 6.045.034 8.897.068z" class="fil0" style="shape-rendering:geometricprecision;text-rendering:geometricprecision;fill-rule:evenodd;clip-rule:evenodd;fill:#000;fill-opacity:1"/></g><g class="fills"><path d="M96.843 18.469c.186-.807.334-1.481.334-2.425 0-1.819-1.253-2.564-2.579-2.564-2.172 0-3.303 1.182-3.817 4.989zm-43.054 9.172c-.661.437-1.655.942-2.756.942-2.098 0-2.392-1.619-2.392-3.539 0-2.259.665-6.269 1.396-7.855 1.107-2.428 2.614-3.1 5.04-3.1.071 0 .259 0 .516.034zm71.247-5.533c-.768 6.541-1.838 7.891-3.888 7.891-1.88 0-2.613-1.25-2.613-3.98 0-1.177.145-2.828.368-4.547.772-6.543 1.84-7.89 3.89-7.89 1.88 0 2.613 1.248 2.613 3.976 0 1.18-.147 2.832-.37 4.55M76.209 34.512H65.995L70.627 0h10.224zm20.783-5.997c2.05 0 4.812-.437 6.983-1.01l-1.25 6.271c-2.579.603-6.211.94-9.452.94-10.325 0-13.195-4.115-13.195-9.505 0-13.788 6.469-16.92 15.367-16.92 6.986 0 11.319 3.099 11.319 9.034 0 2.591-.578 4.922-.983 6.538h-15.37c0 2.97 1.057 4.652 6.581 4.652M56.803 8.493c-7.131 0-10.99 1.245-14.117 4.312-2.977 2.903-4.558 8.026-4.558 13.452 0 4.72 1.285 8.627 7.648 8.627 2.9 0 5.442-1.006 7.794-2.258h.108l-.254 1.886h9.668l3.457-25.849c-2.832-.105-6.104-.17-9.746-.17m79.161 9.17c0-6.677-4.715-9.372-12.62-9.372-9.55 0-15.368 4.013-15.368 17.629 0 6.672 4.714 9.371 12.621 9.371 9.55 0 15.367-3.911 15.367-17.628M34.596 0h10.81c-4.669 12.404-10.699 23.863-17.132 34.512H16.876C14.117 24.368 11.654 12.938 11.284 0h11.842c0 8.189.554 17.697 1.653 24.303h.074C29.008 16.179 32.246 8.087 34.596 0" class="fil1" style="shape-rendering:geometricprecision;text-rendering:geometricprecision;fill-rule:evenodd;clip-rule:evenodd;fill:#000;fill-opacity:1"/></g></g></svg>